<svg width="6" height="192" viewBox="0 0 6 192" fill="none" xmlns="http://www.w3.org/2000/svg">
<path d="M3 0L0.113249 5L5.88675 5L3 0ZM2.5 3L2.5 5L3.5 5L3.5 3L2.5 3ZM2.5 7L2.5 9L3.5 9L3.5 7L2.5 7ZM2.5 11L2.5 13L3.5 13L3.5 11L2.5 11ZM2.5 15L2.5 17L3.5 17L3.5 15L2.5 15ZM2.5 19L2.5 21L3.5 21L3.5 19L2.5 19ZM2.5 23L2.5 25L3.5 25L3.5 23L2.5 23ZM2.5 27L2.5 29L3.5 29L3.5 27L2.5 27ZM2.5 31L2.5 33L3.5 33L3.5 31L2.5 31ZM2.5 35L2.5 37L3.5 37L3.5 35L2.5 35ZM2.5 39L2.5 41L3.5 41L3.5 39L2.5 39ZM2.5 43L2.5 45L3.5 45L3.5 43L2.5 43ZM2.5 47L2.5 49L3.5 49L3.5 47L2.5 47ZM2.5 51L2.5 53L3.5 53L3.5 51L2.5 51ZM2.5 55L2.5 57L3.5 57L3.5 55L2.5 55ZM2.5 59L2.5 61L3.5 61L3.5 59L2.5 59ZM2.5 63L2.5 65L3.5 65L3.5 63L2.5 63ZM2.5 67L2.5 69L3.5 69L3.5 67L2.5 67ZM2.5 71L2.5 73L3.5 73L3.5 71L2.5 71ZM2.5 75L2.5 77L3.5 77L3.5 75L2.5 75ZM2.5 79L2.5 81L3.5 81L3.5 79L2.5 79ZM2.5 83L2.5 85L3.5 85L3.5 83L2.5 83ZM2.5 87L2.5 89L3.5 89L3.5 87L2.5 87ZM2.5 91L2.5 93L3.5 93L3.5 91L2.5 91ZM2.5 95L2.5 97L3.5 97L3.5 95L2.5 95ZM2.5 99L2.5 101L3.5 101L3.5 99L2.5 99ZM2.5 103L2.5 105L3.5 105L3.5 103L2.5 103ZM2.5 107L2.5 109L3.5 109L3.5 107L2.5 107ZM2.5 111L2.5 113L3.5 113L3.5 111L2.5 111ZM2.5 115L2.5 117L3.5 117L3.5 115L2.5 115ZM2.5 119L2.5 121L3.5 121L3.5 119L2.5 119ZM2.5 123L2.5 125L3.5 125L3.5 123L2.5 123ZM2.5 127L2.5 129L3.5 129L3.5 127L2.5 127ZM2.5 131L2.5 133L3.5 133L3.5 131L2.5 131ZM2.5 135L2.5 137L3.5 137L3.5 135L2.5 135ZM2.5 139L2.5 141L3.5 141L3.5 139L2.5 139ZM2.5 143L2.5 145L3.5 145L3.5 143L2.5 143ZM2.5 147L2.5 149L3.5 149L3.5 147L2.5 147ZM2.5 151L2.5 153L3.5 153L3.5 151L2.5 151ZM2.5 155L2.5 157L3.5 157L3.5 155L2.5 155ZM2.5 159L2.5 161L3.5 161L3.5 159L2.5 159ZM2.5 163L2.5 165L3.5 165L3.5 163L2.5 163ZM2.5 167L2.5 169L3.5 169L3.5 167L2.5 167ZM2.5 171L2.5 173L3.5 173L3.5 171L2.5 171ZM2.5 175L2.5 177L3.5 177L3.5 175L2.5 175ZM2.5 179L2.5 181L3.5 181L3.5 179L2.5 179ZM2.5 183L2.5 185L3.5 185L3.5 183L2.5 183ZM2.5 187L2.5 189L3.5 189L3.5 187L2.5 187ZM2.5 191L2.5 192L3.5 192L3.5 191L2.5 191Z" fill="#898989"/>
</svg>
