<svg width="6" height="144" viewBox="0 0 6 144" fill="none" xmlns="http://www.w3.org/2000/svg">
<path d="M3 0L0.113249 5L5.88675 5L3 0ZM2.5 2.98958L2.5 4.98264L3.5 4.98264L3.5 2.98958L2.5 2.98958ZM2.5 6.97569L2.5 8.96875L3.5 8.96875L3.5 6.97569L2.5 6.97569ZM2.5 10.9618L2.5 12.9549L3.5 12.9549L3.5 10.9618L2.5 10.9618ZM2.5 14.9479L2.5 16.941H3.5L3.5 14.9479L2.5 14.9479ZM2.5 18.934L2.5 20.9271H3.5L3.5 18.934H2.5ZM2.5 22.9201L2.5 24.9132H3.5L3.5 22.9201H2.5ZM2.5 26.9062L2.5 28.8993H3.5L3.5 26.9062H2.5ZM2.5 30.8924L2.5 32.8854L3.5 32.8854L3.5 30.8924H2.5ZM2.5 34.8785L2.5 36.8715L3.5 36.8715L3.5 34.8785L2.5 34.8785ZM2.5 38.8646L2.5 40.8576L3.5 40.8576L3.5 38.8646L2.5 38.8646ZM2.5 42.8507L2.5 44.8438L3.5 44.8438L3.5 42.8507L2.5 42.8507ZM2.5 46.8368L2.5 48.8299L3.5 48.8299L3.5 46.8368L2.5 46.8368ZM2.5 50.8229L2.5 52.816L3.5 52.816L3.5 50.8229L2.5 50.8229ZM2.5 54.809L2.5 56.8021L3.5 56.8021L3.5 54.809L2.5 54.809ZM2.5 58.7952L2.5 60.7882L3.5 60.7882L3.5 58.7952L2.5 58.7952ZM2.5 62.7813L2.5 64.7743L3.5 64.7743L3.5 62.7813L2.5 62.7813ZM2.5 66.7674L2.5 68.7604H3.5L3.5 66.7674H2.5ZM2.5 70.7535L2.5 72.7466H3.5L3.5 70.7535L2.5 70.7535ZM2.5 74.7396L2.5 76.7327L3.5 76.7327L3.5 74.7396H2.5ZM2.5 78.7257L2.5 80.7188H3.5L3.5 78.7257L2.5 78.7257ZM2.5 82.7118L2.5 84.7049L3.5 84.7049L3.5 82.7118H2.5ZM2.5 86.698L2.5 88.691H3.5L3.5 86.698L2.5 86.698ZM2.5 90.6841L2.5 92.6771L3.5 92.6771L3.5 90.6841H2.5ZM2.5 94.6702L2.5 96.6632H3.5L3.5 94.6702L2.5 94.6702ZM2.5 98.6563L2.5 100.649L3.5 100.649L3.5 98.6563L2.5 98.6563ZM2.5 102.642L2.5 104.635H3.5L3.5 102.642H2.5ZM2.5 106.629L2.5 108.622L3.5 108.622L3.5 106.629L2.5 106.629ZM2.5 110.615L2.5 112.608H3.5L3.5 110.615H2.5ZM2.5 114.601L2.5 116.594L3.5 116.594L3.5 114.601L2.5 114.601ZM2.5 118.587L2.5 120.58H3.5L3.5 118.587H2.5ZM2.5 122.573L2.5 124.566L3.5 124.566L3.5 122.573L2.5 122.573ZM2.5 126.559L2.5 128.552H3.5L3.5 126.559H2.5ZM2.5 130.545L2.5 132.538H3.5L3.5 130.545H2.5ZM2.5 134.531L2.5 136.524H3.5L3.5 134.531H2.5ZM2.5 138.517L2.5 140.51L3.5 140.51L3.5 138.517H2.5ZM2.5 142.504L2.5 143.5H3.5L3.5 142.504L2.5 142.504Z" fill="#898989"/>
</svg>
