<svg width="620" height="112" viewBox="0 0 620 112" fill="none" xmlns="http://www.w3.org/2000/svg">
<path d="M3 111H2.5V111.5H3V111ZM3 0L0.113249 5H5.88675L3 0ZM2.5 2.97321V4.95536H3.5V2.97321H2.5ZM2.5 6.9375V8.91964H3.5V6.9375H2.5ZM2.5 10.9018V12.8839H3.5V10.9018H2.5ZM2.5 14.8661V16.8482H3.5V14.8661H2.5ZM2.5 18.8304V20.8125H3.5V18.8304H2.5ZM2.5 22.7946V24.7768H3.5V22.7946H2.5ZM2.5 26.7589V28.7411H3.5V26.7589H2.5ZM2.5 30.7232V32.7054H3.5V30.7232H2.5ZM2.5 34.6875V36.6696H3.5V34.6875H2.5ZM2.5 38.6518V40.6339H3.5V38.6518H2.5ZM2.5 42.6161V44.5982H3.5V42.6161H2.5ZM2.5 46.5804V48.5625H3.5V46.5804H2.5ZM2.5 50.5447V52.5268H3.5V50.5447H2.5ZM2.5 54.5089V56.4911H3.5V54.5089H2.5ZM2.5 58.4732V60.4554H3.5V58.4732H2.5ZM2.5 62.4375V64.4197H3.5V62.4375H2.5ZM2.5 66.4018V68.3839H3.5V66.4018H2.5ZM2.5 70.3661V72.3482H3.5V70.3661H2.5ZM2.5 74.3304V76.3125H3.5V74.3304H2.5ZM2.5 78.2946V80.2768H3.5V78.2946H2.5ZM2.5 82.2589V84.2411H3.5V82.2589H2.5ZM2.5 86.2232V88.2053H3.5V86.2232H2.5ZM2.5 90.1875V92.1696H3.5V90.1875H2.5ZM2.5 94.1517V96.1339H3.5V94.1517H2.5ZM2.5 98.116V100.098H3.5V98.116H2.5ZM2.5 102.08V104.062H3.5V102.08H2.5ZM2.5 106.045V108.027H3.5V106.045H2.5ZM2.5 110.009V111H3.5V110.009H2.5ZM3 111.5H4.00081V110.5H3V111.5ZM6.00244 111.5H8.00406V110.5H6.00244V111.5ZM10.0057 111.5H12.0073V110.5H10.0057V111.5ZM14.0089 111.5H16.0106V110.5H14.0089V111.5ZM18.0122 111.5H20.0138V110.5H18.0122V111.5ZM22.0154 111.5H24.017V110.5H22.0154V111.5ZM26.0187 111.5H28.0203V110.5H26.0187V111.5ZM30.0219 111.5H32.0235V110.5H30.0219V111.5ZM34.0252 111.5H36.0268V110.5H34.0252V111.5ZM38.0284 111.5H40.03V110.5H38.0284V111.5ZM42.0317 111.5H44.0333V110.5H42.0317V111.5ZM46.0349 111.5H48.0365V110.5H46.0349V111.5ZM50.0382 111.5H52.0398V110.5H50.0382V111.5ZM54.0414 111.5H56.043V110.5H54.0414V111.5ZM58.0447 111.5H60.0463V110.5H58.0447V111.5ZM62.0479 111.5H64.0495V110.5H62.0479V111.5ZM66.0512 111.5H68.0528V110.5H66.0512V111.5ZM70.0544 111.5H72.056V110.5H70.0544V111.5ZM74.0577 111.5H76.0593V110.5H74.0577V111.5ZM78.0609 111.5H80.0625V110.5H78.0609V111.5ZM82.0641 111.5H84.0658V110.5H82.0641V111.5ZM86.0674 111.5H88.069V110.5H86.0674V111.5ZM90.0707 111.5H92.0723V110.5H90.0707V111.5ZM94.0739 111.5H96.0755V110.5H94.0739V111.5ZM98.0772 111.5H100.079V110.5H98.0772V111.5ZM102.08 111.5H104.082V110.5H102.08V111.5ZM106.084 111.5H108.085V110.5H106.084V111.5ZM110.087 111.5H112.089V110.5H110.087V111.5ZM114.09 111.5H116.092V110.5H114.09V111.5ZM118.093 111.5H120.095V110.5H118.093V111.5ZM122.097 111.5H124.098V110.5H122.097V111.5ZM126.1 111.5H128.102V110.5H126.1V111.5ZM130.103 111.5H132.105V110.5H130.103V111.5ZM134.106 111.5H136.108V110.5H134.106V111.5ZM138.11 111.5H140.111V110.5H138.11V111.5ZM142.113 111.5H144.114V110.5H142.113V111.5ZM146.116 111.5H148.118V110.5H146.116V111.5ZM150.119 111.5H152.121V110.5H150.119V111.5ZM154.123 111.5H156.124V110.5H154.123V111.5ZM158.126 111.5H160.127V110.5H158.126V111.5ZM162.129 111.5H164.131V110.5H162.129V111.5ZM166.132 111.5H168.134V110.5H166.132V111.5ZM170.136 111.5H172.137V110.5H170.136V111.5ZM174.139 111.5H176.14V110.5H174.139V111.5ZM178.142 111.5H180.144V110.5H178.142V111.5ZM182.145 111.5H184.147V110.5H182.145V111.5ZM186.148 111.5H188.15V110.5H186.148V111.5ZM190.152 111.5H192.153V110.5H190.152V111.5ZM194.155 111.5H196.157V110.5H194.155V111.5ZM198.158 111.5H200.16V110.5H198.158V111.5ZM202.161 111.5H204.163V110.5H202.161V111.5ZM206.165 111.5H208.166V110.5H206.165V111.5ZM210.168 111.5H212.169V110.5H210.168V111.5ZM214.171 111.5H216.173V110.5H214.171V111.5ZM218.174 111.5H220.176V110.5H218.174V111.5ZM222.178 111.5H224.179V110.5H222.178V111.5ZM226.181 111.5H228.182V110.5H226.181V111.5ZM230.184 111.5H232.186V110.5H230.184V111.5ZM234.187 111.5H236.189V110.5H234.187V111.5ZM238.191 111.5H240.192V110.5H238.191V111.5ZM242.194 111.5H244.195V110.5H242.194V111.5ZM246.197 111.5H248.199V110.5H246.197V111.5ZM250.2 111.5H252.202V110.5H250.2V111.5ZM254.203 111.5H256.205V110.5H254.203V111.5ZM258.207 111.5H260.208V110.5H258.207V111.5ZM262.21 111.5H264.212V110.5H262.21V111.5ZM266.213 111.5H268.215V110.5H266.213V111.5ZM270.216 111.5H272.218V110.5H270.216V111.5ZM274.22 111.5H276.221V110.5H274.22V111.5ZM278.223 111.5H280.224V110.5H278.223V111.5ZM282.226 111.5H284.228V110.5H282.226V111.5ZM286.229 111.5H288.231V110.5H286.229V111.5ZM290.233 111.5H292.234V110.5H290.233V111.5ZM294.236 111.5H296.237V110.5H294.236V111.5ZM298.239 111.5H300.241V110.5H298.239V111.5ZM302.242 111.5H304.244V110.5H302.242V111.5ZM306.246 111.5H308.247V110.5H306.246V111.5ZM310.249 111.5H312.25V110.5H310.249V111.5ZM314.252 111.5H316.254V110.5H314.252V111.5ZM318.255 111.5H320.257V110.5H318.255V111.5ZM322.258 111.5H324.26V110.5H322.258V111.5ZM326.262 111.5H328.263V110.5H326.262V111.5ZM330.265 111.5H332.267V110.5H330.265V111.5ZM334.268 111.5H336.27V110.5H334.268V111.5ZM338.271 111.5H340.273V110.5H338.271V111.5ZM342.275 111.5H344.276V110.5H342.275V111.5ZM346.278 111.5H348.279V110.5H346.278V111.5ZM350.281 111.5H352.283V110.5H350.281V111.5ZM354.284 111.5H356.286V110.5H354.284V111.5ZM358.288 111.5H360.289V110.5H358.288V111.5ZM362.291 111.5H364.292V110.5H362.291V111.5ZM366.294 111.5H368.296V110.5H366.294V111.5ZM370.297 111.5H372.299V110.5H370.297V111.5ZM374.3 111.5H376.302V110.5H374.3V111.5ZM378.304 111.5H380.305V110.5H378.304V111.5ZM382.307 111.5H384.309V110.5H382.307V111.5ZM386.31 111.5H388.312V110.5H386.31V111.5ZM390.313 111.5H392.315V110.5H390.313V111.5ZM394.317 111.5H396.318V110.5H394.317V111.5ZM398.32 111.5H400.322V110.5H398.32V111.5ZM402.323 111.5H404.325V110.5H402.323V111.5ZM406.326 111.5H408.328V110.5H406.326V111.5ZM410.33 111.5H412.331V110.5H410.33V111.5ZM414.333 111.5H416.334V110.5H414.333V111.5ZM418.336 111.5H420.338V110.5H418.336V111.5ZM422.339 111.5H424.341V110.5H422.339V111.5ZM426.343 111.5H428.344V110.5H426.343V111.5ZM430.346 111.5H432.347V110.5H430.346V111.5ZM434.349 111.5H436.351V110.5H434.349V111.5ZM438.352 111.5H440.354V110.5H438.352V111.5ZM442.355 111.5H444.357V110.5H442.355V111.5ZM446.359 111.5H448.36V110.5H446.359V111.5ZM450.362 111.5H452.364V110.5H450.362V111.5ZM454.365 111.5H456.367V110.5H454.365V111.5ZM458.368 111.5H460.37V110.5H458.368V111.5ZM462.372 111.5H464.373V110.5H462.372V111.5ZM466.375 111.5H468.376V110.5H466.375V111.5ZM470.378 111.5H472.38V110.5H470.378V111.5ZM474.381 111.5H476.383V110.5H474.381V111.5ZM478.385 111.5H480.386V110.5H478.385V111.5ZM482.388 111.5H484.389V110.5H482.388V111.5ZM486.391 111.5H488.393V110.5H486.391V111.5ZM490.394 111.5H492.396V110.5H490.394V111.5ZM494.398 111.5H496.399V110.5H494.398V111.5ZM498.401 111.5H500.402V110.5H498.401V111.5ZM502.404 111.5H504.406V110.5H502.404V111.5ZM506.407 111.5H508.409V110.5H506.407V111.5ZM510.41 111.5H512.412V110.5H510.41V111.5ZM514.414 111.5H516.415V110.5H514.414V111.5ZM518.417 111.5H520.419V110.5H518.417V111.5ZM522.42 111.5H524.422V110.5H522.42V111.5ZM526.424 111.5H528.425V110.5H526.424V111.5ZM530.427 111.5H532.429V110.5H530.427V111.5ZM534.43 111.5H536.432V110.5H534.43V111.5ZM538.433 111.5H540.435V110.5H538.433V111.5ZM542.437 111.5H544.438V110.5H542.437V111.5ZM546.44 111.5H548.442V110.5H546.44V111.5ZM550.443 111.5H552.445V110.5H550.443V111.5ZM554.447 111.5H556.448V110.5H554.447V111.5ZM558.45 111.5H560.452V110.5H558.45V111.5ZM562.453 111.5H564.455V110.5H562.453V111.5ZM566.457 111.5H568.458V110.5H566.457V111.5ZM570.46 111.5H572.461V110.5H570.46V111.5ZM574.463 111.5H576.465V110.5H574.463V111.5ZM578.466 111.5H580.468V110.5H578.466V111.5ZM582.47 111.5H584.471V110.5H582.47V111.5ZM586.473 111.5H588.475V110.5H586.473V111.5ZM590.476 111.5H592.478V110.5H590.476V111.5ZM594.48 111.5H596.481V110.5H594.48V111.5ZM598.483 111.5H600.485V110.5H598.483V111.5ZM602.486 111.5H604.488V110.5H602.486V111.5ZM606.49 111.5H608.491V110.5H606.49V111.5ZM610.493 111.5H612.494V110.5H610.493V111.5ZM614.496 111.5H616.498V110.5H614.496V111.5ZM618.499 111.5H619.5V110.5H618.499V111.5Z" fill="#898989"/>
</svg>
