<svg width="68" height="6" viewBox="0 0 68 6" fill="none" xmlns="http://www.w3.org/2000/svg">
<path d="M0 3L5 0.11325L5 5.88675L0 3ZM3 2.5L5 2.5L5 3.5L3 3.5L3 2.5ZM7 2.5L9 2.5L9 3.5L7 3.5L7 2.5ZM11 2.5L13 2.5L13 3.5L11 3.5L11 2.5ZM15 2.5L17 2.5L17 3.5L15 3.5L15 2.5ZM19 2.5L21 2.5L21 3.5L19 3.5L19 2.5ZM23 2.5L25 2.5L25 3.5L23 3.5L23 2.5ZM27 2.5L29 2.50001L29 3.50001L27 3.5L27 2.5ZM31 2.50001L33 2.50001L33 3.50001L31 3.50001L31 2.50001ZM35 2.50001L37 2.50001L37 3.50001L35 3.50001L35 2.50001ZM39 2.50001L41 2.50001L41 3.50001L39 3.50001L39 2.50001ZM43 2.50001L45 2.50001L45 3.50001L43 3.50001L43 2.50001ZM47 2.50001L49 2.50001L49 3.50001L47 3.50001L47 2.50001ZM51 2.50001L53 2.50001L53 3.50001L51 3.50001L51 2.50001ZM55 2.50001L57 2.50001L57 3.50001L55 3.50001L55 2.50001ZM59 2.50001L61 2.50001L61 3.50001L59 3.50001L59 2.50001ZM63 2.50001L65 2.50001L65 3.50001L63 3.50001L63 2.50001ZM67 2.50001L68 2.50001L68 3.50001L67 3.50001L67 2.50001Z" fill="#898989"/>
</svg>
