<svg width="38" height="82" viewBox="0 0 38 82" fill="none" xmlns="http://www.w3.org/2000/svg">
<path d="M37 29.5H37.5V29H37V29.5ZM3.5 29.5H3V30H3.5V29.5ZM3.5 0L0.613249 5H6.38675L3.5 0ZM3 3.16071V5.26786H4V3.16071H3ZM3 7.375V9.48214H4V7.375H3ZM3 11.5893V13.6964H4V11.5893H3ZM3 15.8036V17.9107H4V15.8036H3ZM3 20.0179V22.125H4V20.0179H3ZM3 24.2321V26.3393H4V24.2321H3ZM3 28.4464V29.5H4V28.4464H3ZM3.5 30H4.54688V29H3.5V30ZM6.64062 30H8.73438V29H6.64062V30ZM10.8281 30H12.9219V29H10.8281V30ZM15.0156 30H17.1094V29H15.0156V30ZM19.2031 30H21.2969V29H19.2031V30ZM23.3906 30H25.4844V29H23.3906V30ZM27.5781 30H29.6719V29H27.5781V30ZM31.7656 30H33.8594V29H31.7656V30ZM35.9531 30H37V29H35.9531V30ZM36.5 29.5V30.5096H37.5V29.5H36.5ZM36.5 32.5288V34.5481H37.5V32.5288H36.5ZM36.5 36.5673V38.5865H37.5V36.5673H36.5ZM36.5 40.6058V42.625H37.5V40.6058H36.5ZM36.5 44.6442V46.6635H37.5V44.6442H36.5ZM36.5 48.6827V50.7019H37.5V48.6827H36.5ZM36.5 52.7212V54.7404H37.5V52.7212H36.5ZM36.5 56.7596V58.7788H37.5V56.7596H36.5ZM36.5 60.7981V62.8173H37.5V60.7981H36.5ZM36.5 64.8365V66.8558H37.5V64.8365H36.5ZM36.5 68.875V70.8942H37.5V68.875H36.5ZM36.5 72.9135V74.9327H37.5V72.9135H36.5ZM36.5 76.9519V78.9711H37.5V76.9519H36.5ZM36.5 80.9904V82H37.5V80.9904H36.5Z" fill="#898989"/>
</svg>
