<svg width="291" height="119" viewBox="0 0 291 119" fill="none" xmlns="http://www.w3.org/2000/svg">
<path d="M290 28.5V29H290.5V28.5H290ZM1 28.5V28H0.5V28.5H1ZM1 116H0.5V116.5H1V116ZM58.5997 116L53.5997 113.113V118.887L58.5997 116ZM55.514 115.5H53.4568V116.5H55.514V115.5ZM51.3997 115.5H49.3426V116.5H51.3997V115.5ZM47.2854 115.5H45.2283V116.5H47.2854V115.5ZM43.1712 115.5H41.114V116.5H43.1712V115.5ZM39.0569 115.5H36.9998V116.5H39.0569V115.5ZM34.9426 115.5H32.8855V116.5H34.9426V115.5ZM30.8284 115.5H28.7713V116.5H30.8284V115.5ZM26.7141 115.5H24.657V116.5H26.7141V115.5ZM22.5999 115.5H20.5427V116.5H22.5999V115.5ZM18.4856 115.5H16.4285V116.5H18.4856V115.5ZM14.3714 115.5H12.3142V116.5H14.3714V115.5ZM10.2571 115.5H8.19997V116.5H10.2571V115.5ZM6.14284 115.5H4.08571V116.5H6.14284V115.5ZM2.02858 115.5H1V116.5H2.02858V115.5ZM1.5 116V115.006H0.5V116H1.5ZM1.5 113.017V111.028H0.5V113.017H1.5ZM1.5 109.04V107.051H0.5V109.04H1.5ZM1.5 105.062V103.074H0.5V105.062H1.5ZM1.5 101.085V99.0966H0.5V101.085H1.5ZM1.5 97.108V95.1193H0.5V97.108H1.5ZM1.5 93.1307V91.1421H0.5V93.1307H1.5ZM1.5 89.1534V87.1648H0.5V89.1534H1.5ZM1.5 85.1761V83.1875H0.5V85.1761H1.5ZM1.5 81.1989V79.2102H0.5V81.1989H1.5ZM1.5 77.2216V75.233H0.5V77.2216H1.5ZM1.5 73.2443V71.2557H0.5V73.2443H1.5ZM1.5 69.2671V67.2784H0.5V69.2671H1.5ZM1.5 65.2898V63.3011H0.5V65.2898H1.5ZM1.5 61.3125V59.3239H0.5V61.3125H1.5ZM1.5 57.3352V55.3466H0.5V57.3352H1.5ZM1.5 53.358V51.3693H0.5V53.358H1.5ZM1.5 49.3807V47.392H0.5V49.3807H1.5ZM1.5 45.4034V43.4148H0.5V45.4034H1.5ZM1.5 41.4261V39.4375H0.5V41.4261H1.5ZM1.5 37.4488V35.4602H0.5V37.4488H1.5ZM1.5 33.4716V31.4829H0.5V33.4716H1.5ZM1.5 29.4943V28.5H0.5V29.4943H1.5ZM1 29H2.00347V28H1V29ZM4.01042 29H6.01736V28H4.01042V29ZM8.02431 29H10.0312V28H8.02431V29ZM12.0382 29H14.0451V28H12.0382V29ZM16.0521 29H18.059V28H16.0521V29ZM20.066 29H22.0729V28H20.066V29ZM24.0799 29H26.0868V28H24.0799V29ZM28.0938 29H30.1007V28H28.0938V29ZM32.1076 29H34.1146V28H32.1076V29ZM36.1215 29H38.1285V28H36.1215V29ZM40.1354 29H42.1424V28H40.1354V29ZM44.1493 29H46.1562V28H44.1493V29ZM48.1632 29H50.1701V28H48.1632V29ZM52.1771 29H54.184V28H52.1771V29ZM56.191 29H58.1979V28H56.191V29ZM60.2048 29H62.2118V28H60.2048V29ZM64.2187 29H66.2257V28H64.2187V29ZM68.2326 29H70.2396V28H68.2326V29ZM72.2465 29H74.2534V28H72.2465V29ZM76.2604 29H78.2673V28H76.2604V29ZM80.2743 29H82.2812V28H80.2743V29ZM84.2882 29H86.2951V28H84.2882V29ZM88.302 29H90.309V28H88.302V29ZM92.3159 29H94.3229V28H92.3159V29ZM96.3298 29H98.3368V28H96.3298V29ZM100.344 29H102.351V28H100.344V29ZM104.358 29H106.365V28H104.358V29ZM108.371 29H110.378V28H108.371V29ZM112.385 29H114.392V28H112.385V29ZM116.399 29H118.406V28H116.399V29ZM120.413 29H122.42V28H120.413V29ZM124.427 29H126.434V28H124.427V29ZM128.441 29H130.448V28H128.441V29ZM132.455 29H134.462V28H132.455V29ZM136.469 29H138.476V28H136.469V29ZM140.483 29H142.49V28H140.483V29ZM144.496 29H146.503V28H144.496V29ZM148.51 29H150.517V28H148.51V29ZM152.524 29H154.531V28H152.524V29ZM156.538 29H158.545V28H156.538V29ZM160.552 29H162.559V28H160.552V29ZM164.566 29H166.573V28H164.566V29ZM168.58 29H170.587V28H168.58V29ZM172.594 29H174.601V28H172.594V29ZM176.608 29H178.614V28H176.608V29ZM180.621 29H182.628V28H180.621V29ZM184.635 29H186.642V28H184.635V29ZM188.649 29H190.656V28H188.649V29ZM192.663 29H194.67V28H192.663V29ZM196.677 29H198.684V28H196.677V29ZM200.691 29H202.698V28H200.691V29ZM204.705 29H206.712V28H204.705V29ZM208.719 29H210.726V28H208.719V29ZM212.732 29H214.739V28H212.732V29ZM216.746 29H218.753V28H216.746V29ZM220.76 29H222.767V28H220.76V29ZM224.774 29H226.781V28H224.774V29ZM228.788 29H230.795V28H228.788V29ZM232.802 29H234.809V28H232.802V29ZM236.816 29H238.823V28H236.816V29ZM240.83 29H242.837V28H240.83V29ZM244.844 29H246.851V28H244.844V29ZM248.857 29H250.864V28H248.857V29ZM252.871 29H254.878V28H252.871V29ZM256.885 29H258.892V28H256.885V29ZM260.899 29H262.906V28H260.899V29ZM264.913 29H266.92V28H264.913V29ZM268.927 29H270.934V28H268.927V29ZM272.941 29H274.948V28H272.941V29ZM276.955 29H278.962V28H276.955V29ZM280.969 29H282.976V28H280.969V29ZM284.983 29H286.99V28H284.983V29ZM288.997 29H290V28H288.997V29ZM290.5 28.5V27.4821H289.5V28.5H290.5ZM290.5 25.4464V23.4107H289.5V25.4464H290.5ZM290.5 21.375V19.3393H289.5V21.375H290.5ZM290.5 17.3036V15.2679H289.5V17.3036H290.5ZM290.5 13.2321V11.1964H289.5V13.2321H290.5ZM290.5 9.16071V7.125H289.5V9.16071H290.5ZM290.5 5.08928V3.05357H289.5V5.08928H290.5ZM290.5 1.01785V0H289.5V1.01785H290.5Z" fill="#898989"/>
</svg>
