<svg width="94" height="53" viewBox="0 0 94 53" fill="none" xmlns="http://www.w3.org/2000/svg">
<path d="M93 20.068H93.5V19.568H93V20.068ZM3 20.068H2.5V20.568H3V20.068ZM3 0L0.113249 5H5.88675L3 0ZM2.5 3.01019V5.01699H3.5V3.01019H2.5ZM2.5 7.02379V9.03058H3.5V7.02379H2.5ZM2.5 11.0374V13.0442H3.5V11.0374H2.5ZM2.5 15.051V17.0578H3.5V15.051H2.5ZM2.5 19.0646V20.068H3.5V19.0646H2.5ZM3 20.568H3.97826V19.568H3V20.568ZM5.93478 20.568H7.8913V19.568H5.93478V20.568ZM9.84783 20.568H11.8043V19.568H9.84783V20.568ZM13.7609 20.568H15.7174V19.568H13.7609V20.568ZM17.6739 20.568H19.6304V19.568H17.6739V20.568ZM21.587 20.568H23.5435V19.568H21.587V20.568ZM25.5 20.568H27.4565V19.568H25.5V20.568ZM29.413 20.568H31.3696V19.568H29.413V20.568ZM33.3261 20.568H35.2826V19.568H33.3261V20.568ZM37.2391 20.568H39.1957V19.568H37.2391V20.568ZM41.1522 20.568H43.1087V19.568H41.1522V20.568ZM45.0652 20.568H47.0217V19.568H45.0652V20.568ZM48.9783 20.568H50.9348V19.568H48.9783V20.568ZM52.8913 20.568H54.8478V19.568H52.8913V20.568ZM56.8043 20.568H58.7609V19.568H56.8043V20.568ZM60.7174 20.568H62.6739V19.568H60.7174V20.568ZM64.6304 20.568H66.5869V19.568H64.6304V20.568ZM68.5435 20.568H70.5V19.568H68.5435V20.568ZM72.4565 20.568H74.413V19.568H72.4565V20.568ZM76.3695 20.568H78.3261V19.568H76.3695V20.568ZM80.2826 20.568H82.2391V19.568H80.2826V20.568ZM84.1956 20.568H86.1521V19.568H84.1956V20.568ZM88.1087 20.568H90.0652V19.568H88.1087V20.568ZM92.0217 20.568H93V19.568H92.0217V20.568ZM92.5 20.068V21.0971H93.5V20.068H92.5ZM92.5 23.1553V25.2136H93.5V23.1553H92.5ZM92.5 27.2718V29.3301H93.5V27.2718H92.5ZM92.5 31.3883V33.4466H93.5V31.3883H92.5ZM92.5 35.5049V37.5631H93.5V35.5049H92.5ZM92.5 39.6214V41.6796H93.5V39.6214H92.5ZM92.5 43.7379V45.7961H93.5V43.7379H92.5ZM92.5 47.8544V49.9126H93.5V47.8544H92.5ZM92.5 51.9709V53H93.5V51.9709H92.5Z" fill="#898989"/>
</svg>
