<svg width="76" height="170" viewBox="0 0 76 170" fill="none" xmlns="http://www.w3.org/2000/svg">
<path d="M74 167V167.5H74.497L74.5 167.003L74 167ZM0 167L5 169.887V164.113L0 167ZM2.92105 167.5H4.86842V166.5H2.92105V167.5ZM6.81579 167.5H8.76316V166.5H6.81579V167.5ZM10.7105 167.5H12.6579V166.5H10.7105V167.5ZM14.6053 167.5H16.5526V166.5H14.6053V167.5ZM18.5 167.5H20.4474V166.5H18.5V167.5ZM22.3947 167.5H24.3421V166.5H22.3947V167.5ZM26.2895 167.5H28.2368V166.5H26.2895V167.5ZM30.1842 167.5H32.1316V166.5H30.1842V167.5ZM34.0789 167.5H36.0263V166.5H34.0789V167.5ZM37.9737 167.5H39.9211V166.5H37.9737V167.5ZM41.8684 167.5H43.8158V166.5H41.8684V167.5ZM45.7632 167.5H47.7105V166.5H45.7632V167.5ZM49.6579 167.5H51.6053V166.5H49.6579V167.5ZM53.5526 167.5H55.5V166.5H53.5526V167.5ZM57.4474 167.5H59.3947V166.5H57.4474V167.5ZM61.3421 167.5H63.2895V166.5H61.3421V167.5ZM65.2368 167.5H67.1842V166.5H65.2368V167.5ZM69.1316 167.5H71.0789V166.5H69.1316V167.5ZM73.0263 167.5H74V166.5H73.0263V167.5ZM74.5 167.003L74.5059 166.015L73.506 166.009L73.5 166.997L74.5 167.003ZM74.5178 164.039L74.5298 162.063L73.5298 162.057L73.5179 164.033L74.5178 164.039ZM74.5417 160.086L74.5536 158.11L73.5536 158.104L73.5417 160.08L74.5417 160.086ZM74.5655 156.134L74.5774 154.158L73.5774 154.152L73.5655 156.128L74.5655 156.134ZM74.5893 152.182L74.6012 150.205L73.6012 150.199L73.5893 152.176L74.5893 152.182ZM74.6131 148.229L74.625 146.253L73.625 146.247L73.6131 148.223L74.6131 148.229ZM74.6369 144.277L74.6488 142.301L73.6488 142.295L73.6369 144.271L74.6369 144.277ZM74.6607 140.324L74.6726 138.348L73.6726 138.342L73.6607 140.318L74.6607 140.324ZM74.6845 136.372L74.6964 134.396L73.6964 134.39L73.6845 136.366L74.6845 136.372ZM74.7083 132.42L74.7202 130.443L73.7202 130.437L73.7083 132.414L74.7083 132.42ZM74.7321 128.467L74.744 126.491L73.7441 126.485L73.7322 128.461L74.7321 128.467ZM74.7559 124.515L74.7678 122.539L73.7679 122.533L73.756 124.509L74.7559 124.515ZM74.7798 120.563L74.7917 118.586L73.7917 118.58L73.7798 120.557L74.7798 120.563ZM74.8036 116.61L74.8155 114.634L73.8155 114.628L73.8036 116.604L74.8036 116.61ZM74.8274 112.658L74.8393 110.682L73.8393 110.676L73.8274 112.652L74.8274 112.658ZM74.8512 108.705L74.8631 106.729L73.8631 106.723L73.8512 108.699L74.8512 108.705ZM74.875 104.753L74.8869 102.777L73.8869 102.771L73.875 104.747L74.875 104.753ZM74.8988 100.801L74.9107 98.8244L73.9107 98.8184L73.8988 100.795L74.8988 100.801ZM74.9226 96.8482L74.9345 94.872L73.9345 94.866L73.9226 96.8422L74.9226 96.8482ZM74.9464 92.8959L74.9583 90.9197L73.9583 90.9136L73.9464 92.8898L74.9464 92.8959ZM74.9702 88.9435L74.9821 86.9673L73.9822 86.9613L73.9702 88.9374L74.9702 88.9435ZM74.994 84.9911L75.0059 83.0149L74.006 83.0089L73.9941 84.9851L74.994 84.9911ZM75.0178 81.0387L75.0298 79.0625L74.0298 79.0565L74.0179 81.0327L75.0178 81.0387ZM75.0417 77.0863L75.0536 75.1101L74.0536 75.1041L74.0417 77.0803L75.0417 77.0863ZM75.0655 73.1339L75.0774 71.1578L74.0774 71.1517L74.0655 73.1279L75.0655 73.1339ZM75.0893 69.1816L75.1012 67.2054L74.1012 67.1994L74.0893 69.1755L75.0893 69.1816ZM75.1131 65.2292L75.125 63.253L74.125 63.247L74.1131 65.2232L75.1131 65.2292ZM75.1369 61.2768L75.1488 59.3006L74.1488 59.2946L74.1369 61.2708L75.1369 61.2768ZM75.1607 57.3244L75.1726 55.3482L74.1726 55.3422L74.1607 57.3184L75.1607 57.3244ZM75.1845 53.372L75.1964 51.3958L74.1964 51.3898L74.1845 53.366L75.1845 53.372ZM75.2083 49.4197L75.2202 47.4435L74.2202 47.4374L74.2083 49.4136L75.2083 49.4197ZM75.2321 45.4673L75.244 43.4911L74.2441 43.4851L74.2322 45.4613L75.2321 45.4673ZM75.2559 41.5149L75.2678 39.5387L74.2679 39.5327L74.256 41.5089L75.2559 41.5149ZM75.2798 37.5625L75.2917 35.5863L74.2917 35.5803L74.2798 37.5565L75.2798 37.5625ZM75.3036 33.6101L75.3155 31.6339L74.3155 31.6279L74.3036 33.6041L75.3036 33.6101ZM75.3274 29.6578L75.3393 27.6816L74.3393 27.6755L74.3274 29.6517L75.3274 29.6578ZM75.3512 25.7054L75.3631 23.7292L74.3631 23.7232L74.3512 25.6993L75.3512 25.7054ZM75.375 21.753L75.3869 19.7768L74.3869 19.7708L74.375 21.747L75.375 21.753ZM75.3988 17.8006L75.4107 15.8244L74.4107 15.8184L74.3988 17.7946L75.3988 17.8006ZM75.4226 13.8482L75.4345 11.872L74.4345 11.866L74.4226 13.8422L75.4226 13.8482ZM75.4464 9.89584L75.4583 7.91965L74.4583 7.91363L74.4464 9.88982L75.4464 9.89584ZM75.4702 5.94346L75.4821 3.96727L74.4822 3.96124L74.4702 5.93744L75.4702 5.94346ZM75.494 1.99107L75.5 1.00301L74.5 0.996988L74.4941 1.98505L75.494 1.99107Z" fill="#898989"/>
</svg>
