<svg width="478" height="180" viewBox="0 0 478 180" fill="none" xmlns="http://www.w3.org/2000/svg">
<path d="M477 177V177.5H477.5V177H477ZM0 177L5 179.887V174.113L0 177ZM3.0063 177.5H5.0105V176.5H3.0063V177.5ZM7.01471 177.5H9.01891V176.5H7.01471V177.5ZM11.0231 177.5H13.0273V176.5H11.0231V177.5ZM15.0315 177.5H17.0357V176.5H15.0315V177.5ZM19.0399 177.5H21.0441V176.5H19.0399V177.5ZM23.0483 177.5H25.0525V176.5H23.0483V177.5ZM27.0567 177.5H29.0609V176.5H27.0567V177.5ZM31.0651 177.5H33.0693V176.5H31.0651V177.5ZM35.0735 177.5H37.0777V176.5H35.0735V177.5ZM39.0819 177.5H41.0861V176.5H39.0819V177.5ZM43.0903 177.5H45.0945V176.5H43.0903V177.5ZM47.0987 177.5H49.1029V176.5H47.0987V177.5ZM51.1071 177.5H53.1113V176.5H51.1071V177.5ZM55.1155 177.5H57.1197V176.5H55.1155V177.5ZM59.1239 177.5H61.1281V176.5H59.1239V177.5ZM63.1323 177.5H65.1365V176.5H63.1323V177.5ZM67.1407 177.5H69.1449V176.5H67.1407V177.5ZM71.1491 177.5H73.1533V176.5H71.1491V177.5ZM75.1575 177.5H77.1618V176.5H75.1575V177.5ZM79.166 177.5H81.1702V176.5H79.166V177.5ZM83.1744 177.5H85.1786V176.5H83.1744V177.5ZM87.1828 177.5H89.187V176.5H87.1828V177.5ZM91.1912 177.5H93.1954V176.5H91.1912V177.5ZM95.1996 177.5H97.2038V176.5H95.1996V177.5ZM99.208 177.5H101.212V176.5H99.208V177.5ZM103.216 177.5H105.221V176.5H103.216V177.5ZM107.225 177.5H109.229V176.5H107.225V177.5ZM111.233 177.5H113.237V176.5H111.233V177.5ZM115.242 177.5H117.246V176.5H115.242V177.5ZM119.25 177.5H121.254V176.5H119.25V177.5ZM123.258 177.5H125.263V176.5H123.258V177.5ZM127.267 177.5H129.271V176.5H127.267V177.5ZM131.275 177.5H133.279V176.5H131.275V177.5ZM135.284 177.5H137.288V176.5H135.284V177.5ZM139.292 177.5H141.296V176.5H139.292V177.5ZM143.3 177.5H145.305V176.5H143.3V177.5ZM147.309 177.5H149.313V176.5H147.309V177.5ZM151.317 177.5H153.321V176.5H151.317V177.5ZM155.326 177.5H157.33V176.5H155.326V177.5ZM159.334 177.5H161.338V176.5H159.334V177.5ZM163.342 177.5H165.347V176.5H163.342V177.5ZM167.351 177.5H169.355V176.5H167.351V177.5ZM171.359 177.5H173.363V176.5H171.359V177.5ZM175.368 177.5H177.372V176.5H175.368V177.5ZM179.376 177.5H181.38V176.5H179.376V177.5ZM183.384 177.5H185.389V176.5H183.384V177.5ZM187.393 177.5H189.397V176.5H187.393V177.5ZM191.401 177.5H193.405V176.5H191.401V177.5ZM195.41 177.5H197.414V176.5H195.41V177.5ZM199.418 177.5H201.422V176.5H199.418V177.5ZM203.426 177.5H205.43V176.5H203.426V177.5ZM207.435 177.5H209.439V176.5H207.435V177.5ZM211.443 177.5H213.447V176.5H211.443V177.5ZM215.451 177.5H217.456V176.5H215.451V177.5ZM219.46 177.5H221.464V176.5H219.46V177.5ZM223.468 177.5H225.472V176.5H223.468V177.5ZM227.477 177.5H229.481V176.5H227.477V177.5ZM231.485 177.5H233.489V176.5H231.485V177.5ZM235.493 177.5H237.498V176.5H235.493V177.5ZM239.502 177.5H241.506V176.5H239.502V177.5ZM243.51 177.5H245.514V176.5H243.51V177.5ZM247.519 177.5H249.523V176.5H247.519V177.5ZM251.527 177.5H253.531V176.5H251.527V177.5ZM255.535 177.5H257.54V176.5H255.535V177.5ZM259.544 177.5H261.548V176.5H259.544V177.5ZM263.552 177.5H265.556V176.5H263.552V177.5ZM267.561 177.5H269.565V176.5H267.561V177.5ZM271.569 177.5H273.573V176.5H271.569V177.5ZM275.578 177.5H277.582V176.5H275.578V177.5ZM279.586 177.5H281.59V176.5H279.586V177.5ZM283.594 177.5H285.599V176.5H283.594V177.5ZM287.603 177.5H289.607V176.5H287.603V177.5ZM291.611 177.5H293.615V176.5H291.611V177.5ZM295.62 177.5H297.624V176.5H295.62V177.5ZM299.628 177.5H301.632V176.5H299.628V177.5ZM303.636 177.5H305.641V176.5H303.636V177.5ZM307.645 177.5H309.649V176.5H307.645V177.5ZM311.653 177.5H313.658V176.5H311.653V177.5ZM315.662 177.5H317.666V176.5H315.662V177.5ZM319.67 177.5H321.674V176.5H319.67V177.5ZM323.679 177.5H325.683V176.5H323.679V177.5ZM327.687 177.5H329.691V176.5H327.687V177.5ZM331.695 177.5H333.7V176.5H331.695V177.5ZM335.704 177.5H337.708V176.5H335.704V177.5ZM339.712 177.5H341.716V176.5H339.712V177.5ZM343.721 177.5H345.725V176.5H343.721V177.5ZM347.729 177.5H349.733V176.5H347.729V177.5ZM351.738 177.5H353.742V176.5H351.738V177.5ZM355.746 177.5H357.75V176.5H355.746V177.5ZM359.754 177.5H361.759V176.5H359.754V177.5ZM363.763 177.5H365.767V176.5H363.763V177.5ZM367.771 177.5H369.775V176.5H367.771V177.5ZM371.78 177.5H373.784V176.5H371.78V177.5ZM375.788 177.5H377.792V176.5H375.788V177.5ZM379.797 177.5H381.801V176.5H379.797V177.5ZM383.805 177.5H385.809V176.5H383.805V177.5ZM387.813 177.5H389.818V176.5H387.813V177.5ZM391.822 177.5H393.826V176.5H391.822V177.5ZM395.83 177.5H397.834V176.5H395.83V177.5ZM399.839 177.5H401.843V176.5H399.839V177.5ZM403.847 177.5H405.851V176.5H403.847V177.5ZM407.855 177.5H409.86V176.5H407.855V177.5ZM411.864 177.5H413.868V176.5H411.864V177.5ZM415.872 177.5H417.877V176.5H415.872V177.5ZM419.881 177.5H421.885V176.5H419.881V177.5ZM423.889 177.5H425.893V176.5H423.889V177.5ZM427.898 177.5H429.902V176.5H427.898V177.5ZM431.906 177.5H433.91V176.5H431.906V177.5ZM435.914 177.5H437.919V176.5H435.914V177.5ZM439.923 177.5H441.927V176.5H439.923V177.5ZM443.931 177.5H445.935V176.5H443.931V177.5ZM447.94 177.5H449.944V176.5H447.94V177.5ZM451.948 177.5H453.952V176.5H451.948V177.5ZM455.957 177.5H457.961V176.5H455.957V177.5ZM459.965 177.5H461.969V176.5H459.965V177.5ZM463.973 177.5H465.978V176.5H463.973V177.5ZM467.982 177.5H469.986V176.5H467.982V177.5ZM471.99 177.5H473.994V176.5H471.99V177.5ZM475.999 177.5H477V176.5H475.999V177.5ZM477.5 177V175.994H476.5V177H477.5ZM477.5 173.983V171.972H476.5V173.983H477.5ZM477.5 169.96V167.949H476.5V169.96H477.5ZM477.5 165.938V163.926H476.5V165.938H477.5ZM477.5 161.915V159.903H476.5V161.915H477.5ZM477.5 157.892V155.881H476.5V157.892H477.5ZM477.5 153.869V151.858H476.5V153.869H477.5ZM477.5 149.847V147.835H476.5V149.847H477.5ZM477.5 145.824V143.812H476.5V145.824H477.5ZM477.5 141.801V139.79H476.5V141.801H477.5ZM477.5 137.778V135.767H476.5V137.778H477.5ZM477.5 133.756V131.744H476.5V133.756H477.5ZM477.5 129.733V127.722H476.5V129.733H477.5ZM477.5 125.71V123.699H476.5V125.71H477.5ZM477.5 121.687V119.676H476.5V121.687H477.5ZM477.5 117.665V115.653H476.5V117.665H477.5ZM477.5 113.642V111.631H476.5V113.642H477.5ZM477.5 109.619V107.608H476.5V109.619H477.5ZM477.5 105.597V103.585H476.5V105.597H477.5ZM477.5 101.574V99.5625H476.5V101.574H477.5ZM477.5 97.5512V95.5398H476.5V97.5512H477.5ZM477.5 93.5284V91.5171H476.5V93.5284H477.5ZM477.5 89.5057V87.4944H476.5V89.5057H477.5ZM477.5 85.483V83.4716H476.5V85.483H477.5ZM477.5 81.4603V79.4489H476.5V81.4603H477.5ZM477.5 77.4376V75.4262H476.5V77.4376H477.5ZM477.5 73.4148V71.4035H476.5V73.4148H477.5ZM477.5 69.3921V67.3808H476.5V69.3921H477.5ZM477.5 65.3694V63.358H476.5V65.3694H477.5ZM477.5 61.3467V59.3353H476.5V61.3467H477.5ZM477.5 57.324V55.3126H476.5V57.324H477.5ZM477.5 53.3012V51.2899H476.5V53.3012H477.5ZM477.5 49.2785V47.2671H476.5V49.2785H477.5ZM477.5 45.2558V43.2444H476.5V45.2558H477.5ZM477.5 41.2331V39.2217H476.5V41.2331H477.5ZM477.5 37.2103V35.1989H476.5V37.2103H477.5ZM477.5 33.1876V31.1762H476.5V33.1876H477.5ZM477.5 29.1648V27.1535H476.5V29.1648H477.5ZM477.5 25.1421V23.1307H476.5V25.1421H477.5ZM477.5 21.1194V19.108H476.5V21.1194H477.5ZM477.5 17.0966V15.0853H476.5V17.0966H477.5ZM477.5 13.0739V11.0625H476.5V13.0739H477.5ZM477.5 9.05116V7.0398H476.5V9.05116H477.5ZM477.5 5.02843V3.01706H476.5V5.02843H477.5ZM477.5 1.00569V0H476.5V1.00569H477.5Z" fill="#898989"/>
</svg>
