<svg width="113" height="54" viewBox="0 0 113 54" fill="none" xmlns="http://www.w3.org/2000/svg">
<path d="M112 19.7308V20.2308H112.5V19.7308H112ZM3 19.7308V19.2308H2.5V19.7308H3ZM3 54L5.88675 49H0.113249L3 54ZM3.5 51.1442V49.2404H2.5V51.1442H3.5ZM3.5 47.3365V45.4327H2.5V47.3365H3.5ZM3.5 43.5288V41.625H2.5V43.5288H3.5ZM3.5 39.7212V37.8173H2.5V39.7212H3.5ZM3.5 35.9135V34.0096H2.5V35.9135H3.5ZM3.5 32.1058V30.2019H2.5V32.1058H3.5ZM3.5 28.2981V26.3942H2.5V28.2981H3.5ZM3.5 24.4904V22.5865H2.5V24.4904H3.5ZM3.5 20.6827V19.7308H2.5V20.6827H3.5ZM3 20.2308H4.00926V19.2308H3V20.2308ZM6.02778 20.2308H8.04629V19.2308H6.02778V20.2308ZM10.0648 20.2308H12.0833V19.2308H10.0648V20.2308ZM14.1019 20.2308H16.1204V19.2308H14.1019V20.2308ZM18.1389 20.2308H20.1574V19.2308H18.1389V20.2308ZM22.1759 20.2308H24.1944V19.2308H22.1759V20.2308ZM26.213 20.2308H28.2315V19.2308H26.213V20.2308ZM30.25 20.2308H32.2685V19.2308H30.25V20.2308ZM34.287 20.2308H36.3056V19.2308H34.287V20.2308ZM38.3241 20.2308H40.3426V19.2308H38.3241V20.2308ZM42.3611 20.2308H44.3796V19.2308H42.3611V20.2308ZM46.3981 20.2308H48.4167V19.2308H46.3981V20.2308ZM50.4352 20.2308H52.4537V19.2308H50.4352V20.2308ZM54.4722 20.2308H56.4907V19.2308H54.4722V20.2308ZM58.5092 20.2308H60.5278V19.2308H58.5092V20.2308ZM62.5463 20.2308H64.5648V19.2308H62.5463V20.2308ZM66.5833 20.2308H68.6018V19.2308H66.5833V20.2308ZM70.6203 20.2308H72.6389V19.2308H70.6203V20.2308ZM74.6574 20.2308H76.6759V19.2308H74.6574V20.2308ZM78.6944 20.2308H80.7129V19.2308H78.6944V20.2308ZM82.7314 20.2308H84.75V19.2308H82.7314V20.2308ZM86.7685 20.2308H88.787V19.2308H86.7685V20.2308ZM90.8055 20.2308H92.824V19.2308H90.8055V20.2308ZM94.8425 20.2308H96.8611V19.2308H94.8425V20.2308ZM98.8796 20.2308H100.898V19.2308H98.8796V20.2308ZM102.917 20.2308H104.935V19.2308H102.917V20.2308ZM106.954 20.2308H108.972V19.2308H106.954V20.2308ZM110.991 20.2308H112V19.2308H110.991V20.2308ZM112.5 19.7308V18.7442H111.5V19.7308H112.5ZM112.5 16.7712V14.7981H111.5V16.7712H112.5ZM112.5 12.825V10.8519H111.5V12.825H112.5ZM112.5 8.87885V6.90577H111.5V8.87885H112.5ZM112.5 4.93269V2.95962H111.5V4.93269H112.5ZM112.5 0.986538V0H111.5V0.986538H112.5Z" fill="#898989"/>
</svg>
