<svg width="6" height="31" viewBox="0 0 6 31" fill="none" xmlns="http://www.w3.org/2000/svg">
<path d="M2.99998 0.5L0.113234 5.5L5.88674 5.5L2.99998 0.5ZM2.49998 3.35938L2.49999 5.26563L3.49999 5.26562L3.49998 3.35937L2.49998 3.35938ZM2.49999 7.17188L2.49999 9.07813L3.49999 9.07812L3.49999 7.17187L2.49999 7.17188ZM2.49999 10.9844L2.49999 12.8906L3.49999 12.8906L3.49999 10.9844L2.49999 10.9844ZM2.49999 14.7969L2.49999 16.7031L3.49999 16.7031L3.49999 14.7969L2.49999 14.7969ZM2.49999 18.6094L2.49999 20.5156L3.49999 20.5156L3.49999 18.6094L2.49999 18.6094ZM2.5 22.4219L2.5 24.3281L3.5 24.3281L3.5 22.4219L2.5 22.4219ZM2.5 26.2344L2.5 28.1406L3.5 28.1406L3.5 26.2344L2.5 26.2344ZM2.5 30.0469L2.5 31L3.5 31L3.5 30.0469L2.5 30.0469Z" fill="#898989"/>
</svg>
