<svg width="135" height="6" viewBox="0 0 135 6" fill="none" xmlns="http://www.w3.org/2000/svg">
<path d="M135 3L130 0.113249V5.88675L135 3ZM132.022 2.5H130.037V3.5H132.022V2.5ZM128.051 2.5H126.066V3.5H128.051V2.5ZM124.081 2.5L122.096 2.5V3.5L124.081 3.5V2.5ZM120.11 2.5L118.125 2.5V3.5L120.11 3.5V2.5ZM116.14 2.5L114.154 2.5V3.5L116.14 3.5V2.5ZM112.169 2.5L110.184 2.5V3.5L112.169 3.5V2.5ZM108.199 2.5L106.213 2.5V3.5H108.199V2.5ZM104.228 2.5L102.243 2.5V3.5L104.228 3.5V2.5ZM100.257 2.5H98.2721V3.5H100.257V2.5ZM96.2868 2.5H94.3015V3.5L96.2868 3.5V2.5ZM92.3162 2.5H90.3309V3.5H92.3162V2.5ZM88.3456 2.5L86.3603 2.5V3.5H88.3456V2.5ZM84.375 2.5L82.3897 2.5V3.5H84.375V2.5ZM80.4044 2.5L78.4191 2.5V3.5L80.4044 3.5V2.5ZM76.4338 2.5L74.4485 2.5V3.5H76.4338V2.5ZM72.4632 2.5L70.4779 2.5V3.5L72.4632 3.5V2.5ZM68.4926 2.5L66.5074 2.5V3.5L68.4926 3.5V2.5ZM64.5221 2.5H62.5368V3.5L64.5221 3.5V2.5ZM60.5515 2.5H58.5662V3.5L60.5515 3.5V2.5ZM56.5809 2.5H54.5956V3.5H56.5809V2.5ZM52.6103 2.5H50.625V3.5L52.6103 3.5V2.5ZM48.6397 2.5H46.6544V3.5H48.6397V2.5ZM44.6692 2.5L42.6839 2.5V3.5H44.6692V2.5ZM40.6986 2.5L38.7133 2.5V3.5H40.6986V2.5ZM36.728 2.5L34.7427 2.5V3.5L36.728 3.5V2.5ZM32.7574 2.5L30.7721 2.5V3.5H32.7574V2.5ZM28.7868 2.5L26.8015 2.5V3.5L28.7868 3.5V2.5ZM24.8163 2.5L22.831 2.5V3.5L24.8163 3.5V2.5ZM20.8457 2.5H18.8604V3.5L20.8457 3.5V2.5ZM16.8751 2.5H14.8898V3.5L16.8751 3.5V2.5ZM12.9045 2.5H10.9192V3.5H12.9045V2.5ZM8.93393 2.5H6.94864V3.5H8.93393V2.5ZM4.96335 2.5H2.97806V3.5H4.96335V2.5ZM0.99277 2.5H1.19209e-06V3.5H0.99277V2.5Z" fill="#898989"/>
</svg>
