<svg width="48" height="6" viewBox="0 0 48 6" fill="none" xmlns="http://www.w3.org/2000/svg">
<path d="M47.5 3L42.5 0.113249V5.88675L47.5 3ZM44.5312 2.5H42.5521V3.5H44.5312V2.5ZM40.5729 2.5H38.5938V3.5H40.5729V2.5ZM36.6146 2.5L34.6354 2.5V3.5L36.6146 3.5V2.5ZM32.6562 2.5L30.6771 2.5V3.5H32.6562V2.5ZM28.6979 2.5L26.7188 2.5V3.5L28.6979 3.5V2.5ZM24.7396 2.5L22.7604 2.5V3.5L24.7396 3.5V2.5ZM20.7813 2.5L18.8021 2.5V3.5L20.7813 3.5V2.5ZM16.8229 2.5L14.8438 2.5V3.5L16.8229 3.5V2.5ZM12.8646 2.5H10.8854V3.5H12.8646V2.5ZM8.90625 2.5H6.92708V3.5L8.90625 3.5V2.5ZM4.94791 2.5H2.96875V3.5H4.94791V2.5ZM0.989578 2.5H0V3.5H0.989578V2.5Z" fill="#898989"/>
</svg>
