<svg width="146" height="6" viewBox="0 0 146 6" fill="none" xmlns="http://www.w3.org/2000/svg">
<path d="M0 3L5 5.88675L5 0.113249L0 3ZM2.95946 3.5L4.93243 3.5L4.93243 2.5L2.95946 2.5L2.95946 3.5ZM6.90541 3.5L8.87838 3.5L8.87838 2.5L6.90541 2.5L6.90541 3.5ZM10.8514 3.5L12.8243 3.5L12.8243 2.5L10.8514 2.5L10.8514 3.5ZM14.7973 3.5L16.7703 3.5L16.7703 2.5L14.7973 2.5L14.7973 3.5ZM18.7432 3.5L20.7162 3.5L20.7162 2.5L18.7432 2.5L18.7432 3.5ZM22.6892 3.5L24.6622 3.5L24.6622 2.5L22.6892 2.5L22.6892 3.5ZM26.6351 3.5L28.6081 3.5L28.6081 2.5L26.6351 2.5L26.6351 3.5ZM30.5811 3.5L32.5541 3.5L32.5541 2.5L30.5811 2.5L30.5811 3.5ZM34.527 3.5L36.5 3.5L36.5 2.5L34.527 2.5L34.527 3.5ZM38.473 3.5L40.4459 3.5L40.4459 2.5L38.473 2.5L38.473 3.5ZM42.4189 3.5L44.3919 3.5L44.3919 2.5L42.4189 2.5L42.4189 3.5ZM46.3649 3.5L48.3378 3.5L48.3378 2.5L46.3649 2.5L46.3649 3.5ZM50.3108 3.5L52.2838 3.5L52.2838 2.5L50.3108 2.5L50.3108 3.5ZM54.2568 3.5L56.2297 3.5L56.2297 2.5L54.2568 2.5L54.2568 3.5ZM58.2027 3.5L60.1757 3.5L60.1757 2.5L58.2027 2.5L58.2027 3.5ZM62.1486 3.5L64.1216 3.5L64.1216 2.5L62.1486 2.5L62.1486 3.5ZM66.0946 3.5L68.0676 3.5L68.0676 2.5L66.0946 2.5L66.0946 3.5ZM70.0406 3.5L72.0135 3.5L72.0135 2.5L70.0406 2.5L70.0406 3.5ZM73.9865 3.5L75.9595 3.5L75.9595 2.5L73.9865 2.5L73.9865 3.5ZM77.9325 3.5L79.9054 3.5L79.9054 2.5L77.9325 2.5L77.9325 3.5ZM81.8784 3.5L83.8514 3.5L83.8514 2.5L81.8784 2.5L81.8784 3.5ZM85.8244 3.5L87.7973 3.5L87.7973 2.5L85.8244 2.5L85.8244 3.5ZM89.7703 3.5L91.7433 3.5L91.7433 2.5L89.7703 2.5L89.7703 3.5ZM93.7163 3.5L95.6892 3.5L95.6892 2.5L93.7163 2.5L93.7163 3.5ZM97.6622 3.5L99.6352 3.5L99.6352 2.5L97.6622 2.5L97.6622 3.5ZM101.608 3.5L103.581 3.5L103.581 2.5L101.608 2.5L101.608 3.5ZM105.554 3.5L107.527 3.5L107.527 2.5L105.554 2.5L105.554 3.5ZM109.5 3.5L111.473 3.5L111.473 2.5L109.5 2.5L109.5 3.5ZM113.446 3.5L115.419 3.5L115.419 2.5L113.446 2.5L113.446 3.5ZM117.392 3.5L119.365 3.5L119.365 2.5L117.392 2.5L117.392 3.5ZM121.338 3.5L123.311 3.5L123.311 2.5L121.338 2.5L121.338 3.5ZM125.284 3.5L127.257 3.5L127.257 2.5L125.284 2.5L125.284 3.5ZM129.23 3.5L131.203 3.5L131.203 2.5L129.23 2.5L129.23 3.5ZM133.176 3.5L135.149 3.5L135.149 2.5L133.176 2.5L133.176 3.5ZM137.122 3.5L139.095 3.5L139.095 2.5L137.122 2.5L137.122 3.5ZM141.068 3.5L143.041 3.5L143.041 2.5L141.068 2.5L141.068 3.5ZM145.014 3.5L146 3.5L146 2.5L145.014 2.5L145.014 3.5Z" fill="#898989"/>
</svg>
