<svg width="6" height="190" viewBox="0 0 6 190" fill="none" xmlns="http://www.w3.org/2000/svg">
<path d="M3 0L0.113249 5L5.88675 5L3 0ZM2.5 2.96875L2.5 4.94792L3.5 4.94792L3.5 2.96875L2.5 2.96875ZM2.5 6.92708L2.5 8.90625L3.5 8.90625L3.5 6.92708L2.5 6.92708ZM2.5 10.8854L2.5 12.8646L3.5 12.8646L3.5 10.8854L2.5 10.8854ZM2.5 14.8438L2.5 16.8229L3.5 16.8229L3.5 14.8438L2.5 14.8438ZM2.5 18.8021L2.5 20.7813L3.5 20.7813L3.5 18.8021L2.5 18.8021ZM2.5 22.7604L2.5 24.7396L3.5 24.7396L3.5 22.7604L2.5 22.7604ZM2.5 26.7187L2.5 28.6979L3.5 28.6979L3.5 26.7187L2.5 26.7187ZM2.5 30.6771L2.5 32.6562L3.5 32.6562L3.5 30.6771L2.5 30.6771ZM2.5 34.6354L2.5 36.6146L3.5 36.6146L3.5 34.6354L2.5 34.6354ZM2.5 38.5938L2.5 40.5729L3.5 40.5729L3.5 38.5938L2.5 38.5938ZM2.5 42.5521L2.5 44.5313L3.5 44.5313L3.5 42.5521L2.5 42.5521ZM2.5 46.5104L2.5 48.4896L3.5 48.4896L3.5 46.5104L2.5 46.5104ZM2.5 50.4688L2.5 52.4479L3.5 52.4479L3.5 50.4688L2.5 50.4688ZM2.5 54.4271L2.5 56.4063L3.5 56.4063L3.5 54.4271L2.5 54.4271ZM2.5 58.3854L2.5 60.3646L3.5 60.3646L3.5 58.3854L2.5 58.3854ZM2.5 62.3438L2.5 64.3229L3.5 64.3229L3.5 62.3438L2.5 62.3438ZM2.5 66.3021L2.5 68.2813L3.5 68.2813L3.5 66.3021L2.5 66.3021ZM2.5 70.2604L2.5 72.2396L3.5 72.2396L3.5 70.2604L2.5 70.2604ZM2.5 74.2188L2.5 76.1979L3.5 76.1979L3.5 74.2188L2.5 74.2188ZM2.5 78.1771L2.5 80.1562L3.5 80.1562L3.5 78.1771L2.5 78.1771ZM2.5 82.1354L2.5 84.1146L3.5 84.1146L3.5 82.1354L2.5 82.1354ZM2.5 86.0937L2.5 88.0729L3.5 88.0729L3.5 86.0937L2.5 86.0937ZM2.5 90.0521L2.5 92.0312L3.5 92.0312L3.5 90.0521L2.5 90.0521ZM2.5 94.0104L2.5 95.9896L3.5 95.9896L3.5 94.0104L2.5 94.0104ZM2.5 97.9687L2.5 99.9479L3.5 99.9479L3.5 97.9687L2.5 97.9687ZM2.5 101.927L2.5 103.906L3.5 103.906L3.5 101.927L2.5 101.927ZM2.5 105.885L2.5 107.865L3.5 107.865L3.5 105.885L2.5 105.885ZM2.5 109.844L2.5 111.823L3.5 111.823L3.5 109.844L2.5 109.844ZM2.5 113.802L2.5 115.781L3.5 115.781L3.5 113.802L2.5 113.802ZM2.5 117.76L2.5 119.74L3.5 119.74L3.5 117.76L2.5 117.76ZM2.5 121.719L2.5 123.698L3.5 123.698L3.5 121.719L2.5 121.719ZM2.5 125.677L2.5 127.656L3.5 127.656L3.5 125.677L2.5 125.677ZM2.5 129.635L2.5 131.615L3.5 131.615L3.5 129.635L2.5 129.635ZM2.5 133.594L2.5 135.573L3.5 135.573L3.5 133.594L2.5 133.594ZM2.5 137.552L2.5 139.531L3.5 139.531L3.5 137.552L2.5 137.552ZM2.5 141.51L2.5 143.49L3.5 143.49L3.5 141.51L2.5 141.51ZM2.5 145.469L2.5 147.448L3.5 147.448L3.5 145.469L2.5 145.469ZM2.5 149.427L2.5 151.406L3.5 151.406L3.5 149.427L2.5 149.427ZM2.5 153.385L2.5 155.365L3.5 155.365L3.5 153.385L2.5 153.385ZM2.5 157.344L2.5 159.323L3.5 159.323L3.5 157.344L2.5 157.344ZM2.5 161.302L2.5 163.281L3.5 163.281L3.5 161.302L2.5 161.302ZM2.5 165.26L2.5 167.24L3.5 167.24L3.5 165.26L2.5 165.26ZM2.5 169.219L2.5 171.198L3.5 171.198L3.5 169.219L2.5 169.219ZM2.5 173.177L2.5 175.156L3.5 175.156L3.5 173.177L2.5 173.177ZM2.5 177.135L2.5 179.115L3.5 179.115L3.5 177.135L2.5 177.135ZM2.5 181.094L2.5 183.073L3.5 183.073L3.5 181.094L2.5 181.094ZM2.5 185.052L2.5 187.031L3.5 187.031L3.5 185.052L2.5 185.052ZM2.5 189.011L2.5 190L3.5 190L3.5 189.011L2.5 189.011Z" fill="#898989"/>
</svg>
