<svg width="161" height="223" viewBox="0 0 161 223" fill="none" xmlns="http://www.w3.org/2000/svg">
<path d="M160 220V220.5H160.5V220H160ZM0 220L5 222.887V217.113L0 220ZM3 220.5H5V219.5H3V220.5ZM7 220.5H9V219.5H7V220.5ZM11 220.5H13V219.5H11V220.5ZM15 220.5H17V219.5H15V220.5ZM19 220.5H21V219.5H19V220.5ZM23 220.5H25V219.5H23V220.5ZM27 220.5H29V219.5H27V220.5ZM31 220.5H33V219.5H31V220.5ZM35 220.5H37V219.5H35V220.5ZM39 220.5H41V219.5H39V220.5ZM43 220.5H45V219.5H43V220.5ZM47 220.5H49V219.5H47V220.5ZM51 220.5H53V219.5H51V220.5ZM55 220.5H57V219.5H55V220.5ZM59 220.5H61V219.5H59V220.5ZM63 220.5H65V219.5H63V220.5ZM67 220.5H69V219.5H67V220.5ZM71 220.5H73V219.5H71V220.5ZM75 220.5H77V219.5H75V220.5ZM79 220.5H81V219.5H79V220.5ZM83 220.5H85V219.5H83V220.5ZM87 220.5H89V219.5H87V220.5ZM91 220.5H93V219.5H91V220.5ZM95 220.5H97V219.5H95V220.5ZM99 220.5H101V219.5H99V220.5ZM103 220.5H105V219.5H103V220.5ZM107 220.5H109V219.5H107V220.5ZM111 220.5H113V219.5H111V220.5ZM115 220.5H117V219.5H115V220.5ZM119 220.5H121V219.5H119V220.5ZM123 220.5H125V219.5H123V220.5ZM127 220.5H129V219.5H127V220.5ZM131 220.5H133V219.5H131V220.5ZM135 220.5H137V219.5H135V220.5ZM139 220.5H141V219.5H139V220.5ZM143 220.5H145V219.5H143V220.5ZM147 220.5H149V219.5H147V220.5ZM151 220.5H153V219.5H151V220.5ZM155 220.5H157V219.5H155V220.5ZM159 220.5H160V219.5H159V220.5ZM160.5 220V219H159.5V220H160.5ZM160.5 217V215H159.5V217H160.5ZM160.5 213V211H159.5V213H160.5ZM160.5 209V207H159.5V209H160.5ZM160.5 205V203H159.5V205H160.5ZM160.5 201V199H159.5V201H160.5ZM160.5 197V195H159.5V197H160.5ZM160.5 193V191H159.5V193H160.5ZM160.5 189V187H159.5V189H160.5ZM160.5 185V183H159.5V185H160.5ZM160.5 181V179H159.5V181H160.5ZM160.5 177V175H159.5V177H160.5ZM160.5 173V171H159.5V173H160.5ZM160.5 169V167H159.5V169H160.5ZM160.5 165V163H159.5V165H160.5ZM160.5 161V159H159.5V161H160.5ZM160.5 157V155H159.5V157H160.5ZM160.5 153V151H159.5V153H160.5ZM160.5 149V147H159.5V149H160.5ZM160.5 145V143H159.5V145H160.5ZM160.5 141V139H159.5V141H160.5ZM160.5 137V135H159.5V137H160.5ZM160.5 133V131H159.5V133H160.5ZM160.5 129V127H159.5V129H160.5ZM160.5 125V123H159.5V125H160.5ZM160.5 121V119H159.5V121H160.5ZM160.5 117V115H159.5V117H160.5ZM160.5 113V111H159.5V113H160.5ZM160.5 109V107H159.5V109H160.5ZM160.5 105V103H159.5V105H160.5ZM160.5 101V99H159.5V101H160.5ZM160.5 97V95H159.5V97H160.5ZM160.5 93V91H159.5V93H160.5ZM160.5 89V87H159.5V89H160.5ZM160.5 85V83H159.5V85H160.5ZM160.5 81V79H159.5V81H160.5ZM160.5 77V75H159.5V77H160.5ZM160.5 73V71H159.5V73H160.5ZM160.5 69V67H159.5V69H160.5ZM160.5 65V63H159.5V65H160.5ZM160.5 61V59H159.5V61H160.5ZM160.5 57V55H159.5V57H160.5ZM160.5 53V51H159.5V53H160.5ZM160.5 49V47H159.5V49H160.5ZM160.5 45V43H159.5V45H160.5ZM160.5 41V39H159.5V41H160.5ZM160.5 37V35H159.5V37H160.5ZM160.5 33V31H159.5V33H160.5ZM160.5 29V27H159.5V29H160.5ZM160.5 25V23H159.5V25H160.5ZM160.5 21V19H159.5V21H160.5ZM160.5 17V15H159.5V17H160.5ZM160.5 13V11H159.5V13H160.5ZM160.5 9V7.00001H159.5V9H160.5ZM160.5 5V3H159.5V5H160.5ZM160.5 0.999999V0H159.5V0.999999H160.5Z" fill="#898989"/>
</svg>
