<svg width="6" height="61" viewBox="0 0 6 61" fill="none" xmlns="http://www.w3.org/2000/svg">
<path d="M3 0.5L0.113247 5.5L5.88675 5.5L3 0.5ZM2.5 3.525L2.5 5.54167L3.5 5.54167L3.5 3.525L2.5 3.525ZM2.5 7.55833L2.5 9.575L3.5 9.575L3.5 7.55833L2.5 7.55833ZM2.5 11.5917L2.5 13.6083L3.5 13.6083L3.5 11.5917L2.5 11.5917ZM2.5 15.625L2.5 17.6417L3.5 17.6417L3.5 15.625L2.5 15.625ZM2.5 19.6583L2.5 21.675L3.5 21.675L3.5 19.6583L2.5 19.6583ZM2.5 23.6917L2.5 25.7083L3.5 25.7083L3.5 23.6917L2.5 23.6917ZM2.5 27.725L2.5 29.7417L3.5 29.7417L3.5 27.725L2.5 27.725ZM2.5 31.7583L2.5 33.775L3.5 33.775L3.5 31.7583L2.5 31.7583ZM2.5 35.7917L2.5 37.8083L3.5 37.8083L3.5 35.7917L2.5 35.7917ZM2.5 39.825L2.5 41.8417L3.5 41.8417L3.5 39.825L2.5 39.825ZM2.5 43.8583L2.5 45.875L3.5 45.875L3.5 43.8583L2.5 43.8583ZM2.5 47.8917L2.5 49.9083L3.5 49.9083L3.5 47.8917L2.5 47.8917ZM2.5 51.925L2.5 53.9417L3.5 53.9417L3.5 51.925L2.5 51.925ZM2.5 55.9583L2.5 57.975L3.5 57.975L3.5 55.9583L2.5 55.9583ZM2.5 59.9917L2.5 61L3.5 61L3.5 59.9917L2.5 59.9917Z" fill="#898989"/>
</svg>
