<svg width="292" height="7" viewBox="0 0 292 7" fill="none" xmlns="http://www.w3.org/2000/svg">
<path d="M291.434 3.14771L286.434 0.260954V6.03446L291.434 3.14771ZM288.444 2.64771L286.451 2.64771V3.64771L288.444 3.64771L288.444 2.64771ZM284.458 2.64771L282.464 2.64771L282.464 3.64771L284.458 3.64771V2.64771ZM280.471 2.64771L278.478 2.64771V3.64771L280.471 3.64771V2.64771ZM276.485 2.64771L274.492 2.64771V3.64771L276.485 3.64771V2.64771ZM272.499 2.64771L270.506 2.64771V3.64771L272.499 3.64771V2.64771ZM268.512 2.64771L266.519 2.64771V3.64771L268.512 3.64771V2.64771ZM264.526 2.64771L262.533 2.64771V3.64771L264.526 3.64771V2.64771ZM260.54 2.64771L258.547 2.64771V3.64771L260.54 3.64771V2.64771ZM256.553 2.64771L254.56 2.64771V3.64771L256.553 3.64771V2.64771ZM252.567 2.64771L250.574 2.64771V3.64771L252.567 3.64771V2.64771ZM248.581 2.64771L246.588 2.64771V3.64771L248.581 3.64771V2.64771ZM244.595 2.64771L242.601 2.64771V3.64771L244.595 3.64771V2.64771ZM240.608 2.64771L238.615 2.64771V3.64771L240.608 3.64771V2.64771ZM236.622 2.64771L234.629 2.64771V3.64771L236.622 3.64771V2.64771ZM232.636 2.64771L230.643 2.64771V3.64771L232.636 3.64771V2.64771ZM228.649 2.64771L226.656 2.64771V3.64771L228.649 3.64771V2.64771ZM224.663 2.64771L222.67 2.64771V3.64771L224.663 3.64771V2.64771ZM220.677 2.64771L218.684 2.64771V3.64771L220.677 3.64771V2.64771ZM216.69 2.64771L214.697 2.64771V3.64771L216.69 3.64771V2.64771ZM212.704 2.64771L210.711 2.64771V3.64771L212.704 3.64771V2.64771ZM208.718 2.64771L206.725 2.64771V3.64771L208.718 3.64771V2.64771ZM204.732 2.64771L202.738 2.64771V3.64771L204.732 3.64771V2.64771ZM200.745 2.64771L198.752 2.64771V3.64771L200.745 3.64771V2.64771ZM196.759 2.64771L194.766 2.64771V3.64771L196.759 3.64771V2.64771ZM192.773 2.64771L190.78 2.64771V3.64771L192.773 3.64771V2.64771ZM188.786 2.64771L186.793 2.64771V3.64771L188.786 3.64771V2.64771ZM184.8 2.64771L182.807 2.64771V3.64771L184.8 3.64771V2.64771ZM180.814 2.64771L178.821 2.64771V3.64771L180.814 3.64771V2.64771ZM176.828 2.64771L174.834 2.64771V3.64771L176.828 3.64771V2.64771ZM172.841 2.64771L170.848 2.64771V3.64771L172.841 3.64771V2.64771ZM168.855 2.64771L166.862 2.64771V3.64771L168.855 3.64771V2.64771ZM164.869 2.64771L162.875 2.64771V3.64771L164.869 3.64771V2.64771ZM160.882 2.64771L158.889 2.64771V3.64771L160.882 3.64771V2.64771ZM156.896 2.64771L154.903 2.64771V3.64771L156.896 3.64771V2.64771ZM152.91 2.64771L150.917 2.64771V3.64771L152.91 3.64771V2.64771ZM148.923 2.64771L146.93 2.64771V3.64771L148.923 3.64771V2.64771ZM144.937 2.64771L142.944 2.64771V3.64771L144.937 3.64771V2.64771ZM140.951 2.64771L138.958 2.64771V3.64771L140.951 3.64771V2.64771ZM136.965 2.64771L134.971 2.64771V3.64771L136.965 3.64771V2.64771ZM132.978 2.64771L130.985 2.64771V3.64771L132.978 3.64771V2.64771ZM128.992 2.64771L126.999 2.64771V3.64771L128.992 3.64771V2.64771ZM125.006 2.64771L123.012 2.64771V3.64771L125.006 3.64771V2.64771ZM121.019 2.64771L119.026 2.64771V3.64771L121.019 3.64771V2.64771ZM117.033 2.64771L115.04 2.64771V3.64771L117.033 3.64771V2.64771ZM113.047 2.64771L111.054 2.64771V3.64771L113.047 3.64771V2.64771ZM109.06 2.64771L107.067 2.64771V3.64771L109.06 3.64771V2.64771ZM105.074 2.64771L103.081 2.64771V3.64771L105.074 3.64771V2.64771ZM101.088 2.64771L99.0947 2.64771V3.64771L101.088 3.64771V2.64771ZM97.1016 2.64771L95.1084 2.64771V3.64771L97.1016 3.64771V2.64771ZM93.1153 2.64771L91.1221 2.64771V3.64771L93.1153 3.64771V2.64771ZM89.1289 2.64771L87.1358 2.64771V3.64771L89.1289 3.64771V2.64771ZM85.1427 2.64771L83.1495 2.64771V3.64771L85.1427 3.64771V2.64771ZM81.1564 2.64771L79.1632 2.64771V3.64771L81.1564 3.64771V2.64771ZM77.1701 2.64771L75.1769 2.64771V3.64771L77.1701 3.64771V2.64771ZM73.1838 2.64771L71.1906 2.64771V3.64771L73.1838 3.64771V2.64771ZM69.1975 2.64771L67.2043 2.64771V3.64771L69.1975 3.64771V2.64771ZM65.2112 2.64771L63.218 2.64771V3.64771L65.2112 3.64771V2.64771ZM61.2249 2.64771L59.2317 2.64771V3.64771L61.2249 3.64771V2.64771ZM57.2386 2.64771L55.2454 2.64771V3.64771L57.2386 3.64771V2.64771ZM53.2523 2.64771L51.2591 2.64771V3.64771L53.2523 3.64771V2.64771ZM49.266 2.64771L47.2728 2.64771V3.64771L49.266 3.64771V2.64771ZM45.2797 2.64771L43.2865 2.64771V3.64771L45.2797 3.64771V2.64771ZM41.2934 2.64771L39.3002 2.64771V3.64771L41.2934 3.64771V2.64771ZM37.3071 2.64771L35.3139 2.64771V3.64771L37.3071 3.64771V2.64771ZM33.3208 2.64771L31.3276 2.64771V3.64771L33.3208 3.64771V2.64771ZM29.3344 2.64771L27.3413 2.64771V3.64771L29.3344 3.64771V2.64771ZM25.3481 2.64771L23.3549 2.64771V3.64771L25.3481 3.64771V2.64771ZM21.3618 2.64771L19.3686 2.64771V3.64771L21.3618 3.64771V2.64771ZM17.3755 2.64771L15.3823 2.64771V3.64771L17.3755 3.64771V2.64771ZM13.3891 2.64771L11.396 2.64771V3.64771L13.3891 3.64771V2.64771ZM9.40281 2.64771L7.40963 2.64771V3.64771L9.40281 3.64771V2.64771ZM5.41647 2.64771L3.42331 2.64771V3.64771L5.41647 3.64771V2.64771ZM1.43015 2.64771L0.433594 2.64771V3.64771L1.43015 3.64771V2.64771Z" fill="#898989"/>
</svg>
