<svg width="294" height="7" viewBox="0 0 294 7" fill="none" xmlns="http://www.w3.org/2000/svg">
<path d="M293.434 3.14771L288.434 0.260954V6.03446L293.434 3.14771ZM290.419 2.64771L288.409 2.64771V3.64771L290.419 3.64771V2.64771ZM286.399 2.64771L284.389 2.64771V3.64771L286.399 3.64771V2.64771ZM282.38 2.64771H280.37V3.64771H282.38V2.64771ZM278.36 2.64771H276.35V3.64771H278.36V2.64771ZM274.34 2.64771L272.33 2.64771V3.64771L274.34 3.64771V2.64771ZM270.321 2.64771H268.311V3.64771H270.321V2.64771ZM266.301 2.64771H264.291V3.64771H266.301V2.64771ZM262.281 2.64771L260.272 2.64771V3.64771H262.281V2.64771ZM258.262 2.64771H256.252V3.64771H258.262V2.64771ZM254.242 2.64771H252.232V3.64771H254.242V2.64771ZM250.222 2.64771H248.213V3.64771H250.222V2.64771ZM246.203 2.64771L244.193 2.64771V3.64771H246.203V2.64771ZM242.183 2.64771H240.173V3.64771H242.183V2.64771ZM238.164 2.64771H236.154V3.64771H238.164V2.64771ZM234.144 2.64771L232.134 2.64771V3.64771L234.144 3.64771V2.64771ZM230.124 2.64771H228.114V3.64771L230.124 3.64771V2.64771ZM226.105 2.64771H224.095V3.64771H226.105V2.64771ZM222.085 2.64771L220.075 2.64771V3.64771L222.085 3.64771V2.64771ZM218.065 2.64771L216.056 2.64771V3.64771L218.065 3.64771V2.64771ZM214.046 2.64771H212.036V3.64771H214.046V2.64771ZM210.026 2.64771L208.016 2.64771V3.64771L210.026 3.64771V2.64771ZM206.006 2.64771L203.997 2.64771V3.64771L206.006 3.64771V2.64771ZM201.987 2.64771H199.977V3.64771H201.987V2.64771ZM197.967 2.64771H195.957V3.64771H197.967V2.64771ZM193.948 2.64771L191.938 2.64771V3.64771L193.948 3.64771V2.64771ZM189.928 2.64771H187.918V3.64771H189.928V2.64771ZM185.908 2.64771H183.898V3.64771H185.908V2.64771ZM181.889 2.64771L179.879 2.64771V3.64771H181.889V2.64771ZM177.869 2.64771H175.859V3.64771H177.869V2.64771ZM173.849 2.64771H171.84V3.64771H173.849V2.64771ZM169.83 2.64771H167.82V3.64771H169.83V2.64771ZM165.81 2.64771L163.8 2.64771V3.64771H165.81V2.64771ZM161.79 2.64771H159.781V3.64771H161.79V2.64771ZM157.771 2.64771H155.761V3.64771H157.771V2.64771ZM153.751 2.64771L151.741 2.64771V3.64771L153.751 3.64771V2.64771ZM149.731 2.64771H147.722V3.64771L149.731 3.64771V2.64771ZM145.712 2.64771H143.702V3.64771H145.712V2.64771ZM141.692 2.64771L139.682 2.64771V3.64771L141.692 3.64771V2.64771ZM137.673 2.64771L135.663 2.64771V3.64771L137.673 3.64771V2.64771ZM133.653 2.64771H131.643V3.64771H133.653V2.64771ZM129.633 2.64771L127.623 2.64771V3.64771L129.633 3.64771V2.64771ZM125.614 2.64771L123.604 2.64771V3.64771L125.614 3.64771V2.64771ZM121.594 2.64771H119.584V3.64771H121.594V2.64771ZM117.574 2.64771H115.564V3.64771H117.574V2.64771ZM113.555 2.64771L111.545 2.64771V3.64771L113.555 3.64771V2.64771ZM109.535 2.64771H107.525V3.64771H109.535V2.64771ZM105.515 2.64771H103.505V3.64771H105.515V2.64771ZM101.496 2.64771L99.4858 2.64771V3.64771H101.496V2.64771ZM97.476 2.64771H95.4662V3.64771H97.476V2.64771ZM93.4563 2.64771H91.4465V3.64771H93.4563V2.64771ZM89.4367 2.64771H87.4268V3.64771H89.4367V2.64771ZM85.417 2.64771L83.4072 2.64771V3.64771H85.417V2.64771ZM81.3974 2.64771H79.3875V3.64771H81.3974V2.64771ZM77.3777 2.64771H75.3679V3.64771H77.3777V2.64771ZM73.3581 2.64771L71.3482 2.64771V3.64771L73.3581 3.64771V2.64771ZM69.3384 2.64771H67.3286V3.64771L69.3384 3.64771V2.64771ZM65.3188 2.64771H63.3089V3.64771H65.3188V2.64771ZM61.2991 2.64771L59.2893 2.64771V3.64771L61.2991 3.64771V2.64771ZM57.2794 2.64771L55.2696 2.64771V3.64771L57.2794 3.64771V2.64771ZM53.2598 2.64771H51.25V3.64771H53.2598V2.64771ZM49.2401 2.64771L47.2303 2.64771V3.64771L49.2401 3.64771V2.64771ZM45.2205 2.64771L43.2107 2.64771V3.64771L45.2205 3.64771V2.64771ZM41.2008 2.64771H39.191V3.64771H41.2008V2.64771ZM37.1812 2.64771H35.1714V3.64771H37.1812V2.64771ZM33.1615 2.64771L31.1517 2.64771V3.64771L33.1615 3.64771V2.64771ZM29.1419 2.64771H27.132V3.64771H29.1419V2.64771ZM25.1222 2.64771H23.1124V3.64771H25.1222V2.64771ZM21.1026 2.64771H19.0927V3.64771H21.1026V2.64771ZM17.0829 2.64771H15.0731V3.64771H17.0829V2.64771ZM13.0633 2.64771H11.0534V3.64771H13.0633V2.64771ZM9.04361 2.64771H7.03378V3.64771H9.04361V2.64771ZM5.02396 2.64771L3.01413 2.64771V3.64771H5.02396V2.64771ZM1.0043 2.64771H0V3.64771H1.0043V2.64771Z" fill="#898989"/>
</svg>
