<svg width="189" height="66" viewBox="0 0 189 66" fill="none" xmlns="http://www.w3.org/2000/svg">
<path d="M188 29H188.5V28.5H188V29ZM3 29H2.5V29.5H3V29ZM3 0L0.113249 5H5.88675L3 0ZM2.5 2.8835V4.80583H3.5V2.8835H2.5ZM2.5 6.72816V8.65049H3.5V6.72816H2.5ZM2.5 10.5728V11.534H3.5V10.5728H2.5ZM2.5 11.534V12.6256H3.5V11.534H2.5ZM2.5 14.8089V16.9921H3.5V14.8089H2.5ZM2.5 19.1754V21.3586H3.5V19.1754H2.5ZM2.5 23.5419V25.7251H3.5V23.5419H2.5ZM2.5 27.9084V29H3.5V27.9084H2.5ZM3 29.5H4.00543V28.5H3V29.5ZM6.0163 29.5H8.02717V28.5H6.0163V29.5ZM10.038 29.5H12.0489V28.5H10.038V29.5ZM14.0598 29.5H16.0707V28.5H14.0598V29.5ZM18.0815 29.5H20.0924V28.5H18.0815V29.5ZM22.1033 29.5H24.1141V28.5H22.1033V29.5ZM26.125 29.5H28.1359V28.5H26.125V29.5ZM30.1467 29.5H32.1576V28.5H30.1467V29.5ZM34.1685 29.5H36.1794V28.5H34.1685V29.5ZM38.1902 29.5H40.2011V28.5H38.1902V29.5ZM42.212 29.5H44.2228V28.5H42.212V29.5ZM46.2337 29.5H48.2446V28.5H46.2337V29.5ZM50.2554 29.5H52.2663V28.5H50.2554V29.5ZM54.2772 29.5H56.288V28.5H54.2772V29.5ZM58.2989 29.5H60.3098V28.5H58.2989V29.5ZM62.3206 29.5H64.3315V28.5H62.3206V29.5ZM66.3424 29.5H68.3532V28.5H66.3424V29.5ZM70.3641 29.5H72.375V28.5H70.3641V29.5ZM74.3859 29.5H76.3967V28.5H74.3859V29.5ZM78.4076 29.5H80.4185V28.5H78.4076V29.5ZM82.4293 29.5H84.4402V28.5H82.4293V29.5ZM86.4511 29.5H88.462V28.5H86.4511V29.5ZM90.4728 29.5H92.4837V28.5H90.4728V29.5ZM94.4946 29.5H96.5054V28.5H94.4946V29.5ZM98.5163 29.5H100.527V28.5H98.5163V29.5ZM102.538 29.5H104.549V28.5H102.538V29.5ZM106.56 29.5H108.571V28.5H106.56V29.5ZM110.582 29.5H112.592V28.5H110.582V29.5ZM114.603 29.5H116.614V28.5H114.603V29.5ZM118.625 29.5H120.636V28.5H118.625V29.5ZM122.647 29.5H124.658V28.5H122.647V29.5ZM126.669 29.5H128.679V28.5H126.669V29.5ZM130.69 29.5H132.701V28.5H130.69V29.5ZM134.712 29.5H136.723V28.5H134.712V29.5ZM138.734 29.5H140.745V28.5H138.734V29.5ZM142.755 29.5H144.766V28.5H142.755V29.5ZM146.777 29.5H148.788V28.5H146.777V29.5ZM150.799 29.5H152.81V28.5H150.799V29.5ZM154.821 29.5H156.832V28.5H154.821V29.5ZM158.842 29.5H160.853V28.5H158.842V29.5ZM162.864 29.5H164.875V28.5H162.864V29.5ZM166.886 29.5H168.897V28.5H166.886V29.5ZM170.908 29.5H172.918V28.5H170.908V29.5ZM174.929 29.5H176.94V28.5H174.929V29.5ZM178.951 29.5H180.962V28.5H178.951V29.5ZM182.973 29.5H184.984V28.5H182.973V29.5ZM186.994 29.5H188V28.5H186.994V29.5ZM187.5 29V30.0278H188.5V29H187.5ZM187.5 32.0833V34.1389H188.5V32.0833H187.5ZM187.5 36.1944V38.25H188.5V36.1944H187.5ZM187.5 40.3056V42.3611H188.5V40.3056H187.5ZM187.5 44.4167V46.4722H188.5V44.4167H187.5ZM187.5 48.5278V50.5833H188.5V48.5278H187.5ZM187.5 52.6389V54.6944H188.5V52.6389H187.5ZM187.5 56.75V58.8056H188.5V56.75H187.5ZM187.5 60.8611V62.9167H188.5V60.8611H187.5ZM187.5 64.9722V66H188.5V64.9722H187.5Z" fill="#898989"/>
</svg>
