<svg width="229" height="66" viewBox="0 0 229 66" fill="none" xmlns="http://www.w3.org/2000/svg">
<path d="M228 28.5672V29.0672H228.5V28.5672H228ZM3 28.5672V28.0672H2.5V28.5672H3ZM3 66L5.88675 61H0.113249L3 66ZM3.5 62.8806V60.801H2.5V62.8806H3.5ZM3.5 58.7214V56.6418H2.5V58.7214H3.5ZM3.5 54.5622V52.4826H2.5V54.5622H3.5ZM3.5 50.403V48.3234H2.5V50.403H3.5ZM3.5 46.2438V44.1642H2.5V46.2438H3.5ZM3.5 42.0846V40.005H2.5V42.0846H3.5ZM3.5 37.9254V35.8458H2.5V37.9254H3.5ZM3.5 33.7662V31.6866H2.5V33.7662H3.5ZM3.5 29.607V28.5672H2.5V29.607H3.5ZM3 29.0672H4.00446V28.0672H3V29.0672ZM6.01339 29.0672H8.02232V28.0672H6.01339V29.0672ZM10.0312 29.0672H12.0402V28.0672H10.0312V29.0672ZM14.0491 29.0672H16.058V28.0672H14.0491V29.0672ZM18.067 29.0672H20.0759V28.0672H18.067V29.0672ZM22.0848 29.0672H24.0937V28.0672H22.0848V29.0672ZM26.1027 29.0672H28.1116V28.0672H26.1027V29.0672ZM30.1205 29.0672H32.1295V28.0672H30.1205V29.0672ZM34.1384 29.0672H36.1473V28.0672H34.1384V29.0672ZM38.1562 29.0672H40.1652V28.0672H38.1562V29.0672ZM42.1741 29.0672H44.183V28.0672H42.1741V29.0672ZM46.192 29.0672H48.2009V28.0672H46.192V29.0672ZM50.2098 29.0672H52.2188V28.0672H50.2098V29.0672ZM54.2277 29.0672H56.2366V28.0672H54.2277V29.0672ZM58.2456 29.0672H60.2545V28.0672H58.2456V29.0672ZM62.2634 29.0672H64.2723V28.0672H62.2634V29.0672ZM66.2813 29.0672H68.2902V28.0672H66.2813V29.0672ZM70.2991 29.0672H72.3081V28.0672H70.2991V29.0672ZM74.317 29.0672H76.3259V28.0672H74.317V29.0672ZM78.3348 29.0672H80.3438V28.0672H78.3348V29.0672ZM82.3527 29.0672H84.3616V28.0672H82.3527V29.0672ZM86.3705 29.0672H88.3795V28.0672H86.3705V29.0672ZM90.3884 29.0672H92.3973V28.0672H90.3884V29.0672ZM94.4062 29.0672H96.4152V28.0672H94.4062V29.0672ZM98.4241 29.0672H100.433V28.0672H98.4241V29.0672ZM102.442 29.0672H104.451V28.0672H102.442V29.0672ZM106.46 29.0672H108.469V28.0672H106.46V29.0672ZM110.478 29.0672H112.487V28.0672H110.478V29.0672ZM114.496 29.0672H116.504V28.0672H114.496V29.0672ZM118.513 29.0672H120.522V28.0672H118.513V29.0672ZM122.531 29.0672H124.54V28.0672H122.531V29.0672ZM126.549 29.0672H128.558V28.0672H126.549V29.0672ZM130.567 29.0672H132.576V28.0672H130.567V29.0672ZM134.585 29.0672H136.594V28.0672H134.585V29.0672ZM138.603 29.0672H140.612V28.0672H138.603V29.0672ZM142.62 29.0672H144.629V28.0672H142.62V29.0672ZM146.638 29.0672H148.647V28.0672H146.638V29.0672ZM150.656 29.0672H152.665V28.0672H150.656V29.0672ZM154.674 29.0672H156.683V28.0672H154.674V29.0672ZM158.692 29.0672H160.701V28.0672H158.692V29.0672ZM162.71 29.0672H164.719V28.0672H162.71V29.0672ZM166.728 29.0672H168.737V28.0672H166.728V29.0672ZM170.745 29.0672H172.754V28.0672H170.745V29.0672ZM174.763 29.0672H176.772V28.0672H174.763V29.0672ZM178.781 29.0672H180.79V28.0672H178.781V29.0672ZM182.799 29.0672H184.808V28.0672H182.799V29.0672ZM186.817 29.0672H188.826V28.0672H186.817V29.0672ZM190.835 29.0672H192.844V28.0672H190.835V29.0672ZM194.853 29.0672H196.861V28.0672H194.853V29.0672ZM198.87 29.0672H200.879V28.0672H198.87V29.0672ZM202.888 29.0672H204.897V28.0672H202.888V29.0672ZM206.906 29.0672H208.915V28.0672H206.906V29.0672ZM210.924 29.0672H212.933V28.0672H210.924V29.0672ZM214.942 29.0672H216.951V28.0672H214.942V29.0672ZM218.96 29.0672H220.969V28.0672H218.96V29.0672ZM222.978 29.0672H224.986V28.0672H222.978V29.0672ZM226.995 29.0672H228V28.0672H226.995V29.0672ZM228.5 28.5672V27.5469H227.5V28.5672H228.5ZM228.5 25.5064V23.4659H227.5V25.5064H228.5ZM228.5 21.4254V19.3849H227.5V21.4254H228.5ZM228.5 17.3443V15.3038H227.5V17.3443H228.5ZM228.5 13.2633V11.2228H227.5V13.2633H228.5ZM228.5 9.1823V7.14179H227.5V9.1823H228.5ZM228.5 5.10128V3.06077H227.5V5.10128H228.5ZM228.5 1.02025V0H227.5V1.02025H228.5Z" fill="#898989"/>
</svg>
