<svg width="51" height="6" viewBox="0 0 51 6" fill="none" xmlns="http://www.w3.org/2000/svg">
<path d="M51 3L46 0.113248L46 5.88675L51 3ZM48.0577 2.5L46.0962 2.5L46.0962 3.5L48.0577 3.5L48.0577 2.5ZM44.1346 2.5L42.1731 2.5L42.1731 3.5L44.1346 3.5L44.1346 2.5ZM40.2115 2.5L38.25 2.5L38.25 3.5L40.2115 3.5L40.2115 2.5ZM36.2885 2.5L34.3269 2.5L34.3269 3.5L36.2885 3.5L36.2885 2.5ZM32.3654 2.5L30.4038 2.5L30.4038 3.5L32.3654 3.5L32.3654 2.5ZM28.4423 2.5L26.4808 2.5L26.4808 3.5L28.4423 3.5L28.4423 2.5ZM24.5192 2.5L22.5577 2.5L22.5577 3.5L24.5192 3.5L24.5192 2.5ZM20.5962 2.5L18.6346 2.5L18.6346 3.5L20.5962 3.5L20.5962 2.5ZM16.6731 2.5L14.7115 2.5L14.7115 3.5L16.6731 3.5L16.6731 2.5ZM12.75 2.5L10.7885 2.5L10.7885 3.5L12.75 3.5L12.75 2.5ZM8.82692 2.5L6.86537 2.5L6.86537 3.5L8.82692 3.5L8.82692 2.5ZM4.90383 2.5L2.94229 2.5L2.94229 3.5L4.90383 3.5L4.90383 2.5ZM0.980755 2.5L1.79988e-08 2.5L-1.79988e-08 3.5L0.980755 3.5L0.980755 2.5Z" fill="#898989"/>
</svg>
